
<svg
  width="300"
  height="485"
  viewBox="0 0 300 485"
  fill="none"
  xmlns="http://www.w3.org/2000/svg"
  role="img"
  aria-labelledby="descId"
>
  <title id="titleId">Top Languages</title>
  <desc id="descId">Top languages by main repo language</desc>
  <style>
    .header {
      font: 600 20px Verdana, Sans-Serif;
      fill:rgb(3, 38, 83);
    }
    @supports(-moz-appearance: auto) {
      /* Selector detects Firefox */
      .header { font-size: 15.5px; }
    }
    .stat {
      font: 600 14px Verdana, Sans-Serif; fill: #434d58;
    }
    @supports(-moz-appearance: auto) {
      /* Selector detects Firefox */
      .stat { font-size:12px; }
    }
    .bold { font-weight: 700 }
    .lang-name {
      font: 400 11px Verdana, Sans-Serif;
      fill: #434d58;
    }
  </style>

  <rect
    data-testid="card-bg"
    x="0.5"
    y="0.5"
    rx="4.5"
    height="99%"
    stroke="#e4e2e2"
    width="299"
    fill="#fffefe"
    stroke-opacity="1"
  />

  <g data-testid="card-title" transform="translate(25, 35)">
    <g transform="translate(0, 0)">
      <text x="0" y="0" class="header" data-testid="header">Top Languages</text>
    </g>
  </g>

  <g data-testid="main-card-body" transform="translate(0, 55)">
    <svg data-testid="lang-items" x="25">
      
      <g transform="translate(0, 0)">
        <g>
          <text data-testid="lang-name" x="2" y="15" class="lang-name">C#</text>
          <text x="215" y="34" class="lang-name">40.21%</text>
          <svg width="205" x="0" y="25">
            <rect rx="5" ry="5" x="0" y="0" width="205" height="8" fill="#ddd"></rect>
            <svg width="40.21%">
              <rect
                  height="8"
                  fill="#e4bc4b"
                  rx="5" ry="5" x="0" y="0"
                  width="100%"
                  class="lang-progress"
              />
            </svg>
          </svg>
        </g>
      </g>
    
      <g transform="translate(0, 40)">
        <g>
          <text data-testid="lang-name" x="2" y="15" class="lang-name">Rust</text>
          <text x="215" y="34" class="lang-name">22.68%</text>
          <svg width="205" x="0" y="25">
            <rect rx="5" ry="5" x="0" y="0" width="205" height="8" fill="#ddd"></rect>
            <svg width="22.68%">
              <rect
                  height="8"
                  fill="#e2ae20"
                  rx="5" ry="5" x="0" y="0"
                  width="100%"
                  class="lang-progress"
              />
            </svg>
          </svg>
        </g>
      </g>
    
      <g transform="translate(0, 80)">
        <g>
          <text data-testid="lang-name" x="2" y="15" class="lang-name">TypeScript</text>
          <text x="215" y="34" class="lang-name">7.22%</text>
          <svg width="205" x="0" y="25">
            <rect rx="5" ry="5" x="0" y="0" width="205" height="8" fill="#ddd"></rect>
            <svg width="7.22%">
              <rect
                  height="8"
                  fill="#d4a86c"
                  rx="5" ry="5" x="0" y="0"
                  width="100%"
                  class="lang-progress"
              />
            </svg>
          </svg>
        </g>
      </g>
    
      <g transform="translate(0, 120)">
        <g>
          <text data-testid="lang-name" x="2" y="15" class="lang-name">JavaScript</text>
          <text x="215" y="34" class="lang-name">7.22%</text>
          <svg width="205" x="0" y="25">
            <rect rx="5" ry="5" x="0" y="0" width="205" height="8" fill="#ddd"></rect>
            <svg width="7.22%">
              <rect
                  height="8"
                  fill="#ee6209"
                  rx="5" ry="5" x="0" y="0"
                  width="100%"
                  class="lang-progress"
              />
            </svg>
          </svg>
        </g>
      </g>
    
      <g transform="translate(0, 160)">
        <g>
          <text data-testid="lang-name" x="2" y="15" class="lang-name">HTML</text>
          <text x="215" y="34" class="lang-name">4.12%</text>
          <svg width="205" x="0" y="25">
            <rect rx="5" ry="5" x="0" y="0" width="205" height="8" fill="#ddd"></rect>
            <svg width="4.12%">
              <rect
                  height="8"
                  fill="#9f738c"
                  rx="5" ry="5" x="0" y="0"
                  width="100%"
                  class="lang-progress"
              />
            </svg>
          </svg>
        </g>
      </g>
    
      <g transform="translate(0, 200)">
        <g>
          <text data-testid="lang-name" x="2" y="15" class="lang-name">F#</text>
          <text x="215" y="34" class="lang-name">4.12%</text>
          <svg width="205" x="0" y="25">
            <rect rx="5" ry="5" x="0" y="0" width="205" height="8" fill="#ddd"></rect>
            <svg width="4.12%">
              <rect
                  height="8"
                  fill="#8b35ca"
                  rx="5" ry="5" x="0" y="0"
                  width="100%"
                  class="lang-progress"
              />
            </svg>
          </svg>
        </g>
      </g>
    
      <g transform="translate(0, 240)">
        <g>
          <text data-testid="lang-name" x="2" y="15" class="lang-name">Go</text>
          <text x="215" y="34" class="lang-name">3.09%</text>
          <svg width="205" x="0" y="25">
            <rect rx="5" ry="5" x="0" y="0" width="205" height="8" fill="#ddd"></rect>
            <svg width="3.09%">
              <rect
                  height="8"
                  fill="#2e0b45"
                  rx="5" ry="5" x="0" y="0"
                  width="100%"
                  class="lang-progress"
              />
            </svg>
          </svg>
        </g>
      </g>
    
      <g transform="translate(0, 280)">
        <g>
          <text data-testid="lang-name" x="2" y="15" class="lang-name">Swift</text>
          <text x="215" y="34" class="lang-name">3.09%</text>
          <svg width="205" x="0" y="25">
            <rect rx="5" ry="5" x="0" y="0" width="205" height="8" fill="#ddd"></rect>
            <svg width="3.09%">
              <rect
                  height="8"
                  fill="#112ab0"
                  rx="5" ry="5" x="0" y="0"
                  width="100%"
                  class="lang-progress"
              />
            </svg>
          </svg>
        </g>
      </g>
    
      <g transform="translate(0, 320)">
        <g>
          <text data-testid="lang-name" x="2" y="15" class="lang-name">Kotlin</text>
          <text x="215" y="34" class="lang-name">2.06%</text>
          <svg width="205" x="0" y="25">
            <rect rx="5" ry="5" x="0" y="0" width="205" height="8" fill="#ddd"></rect>
            <svg width="2.06%">
              <rect
                  height="8"
                  fill="#4b97a1"
                  rx="5" ry="5" x="0" y="0"
                  width="100%"
                  class="lang-progress"
              />
            </svg>
          </svg>
        </g>
      </g>
    
      <g transform="translate(0, 360)">
        <g>
          <text data-testid="lang-name" x="2" y="15" class="lang-name">Shell</text>
          <text x="215" y="34" class="lang-name">2.06%</text>
          <svg width="205" x="0" y="25">
            <rect rx="5" ry="5" x="0" y="0" width="205" height="8" fill="#ddd"></rect>
            <svg width="2.06%">
              <rect
                  height="8"
                  fill="#bdc1fd"
                  rx="5" ry="5" x="0" y="0"
                  width="100%"
                  class="lang-progress"
              />
            </svg>
          </svg>
        </g>
      </g>
    
    </svg>
  </g>
</svg>
    